<svg xmlns="http://www.w3.org/2000/svg" width="233.05162" height="247.10394" viewBox="0 0 233.05162 247.10394">
  <path d="M113.097 240.854c-1.566-3.438-10.285-22.119-19.376-41.514l-16.53-35.264 2.073-4.986c1.14-2.742 2.35-4.986 2.689-4.986.34 0 9.504 18.843 20.367 41.874l19.75 41.874-2.587 4.626c-1.422 2.544-2.8 4.626-3.062 4.626-.263 0-1.759-2.813-3.324-6.25zm-6.268-55.802l-19.633-41.987 2.07-4.98c1.138-2.74 2.347-4.981 2.687-4.981.34 0 9.5 18.835 20.358 41.856l19.74 41.855-2.794 5.112-2.796 5.112-19.632-41.987zm26.311 12.802c-1.564-3.438-10.298-22.107-19.407-41.488L97.17 121.128l2.083-5.012c1.145-2.757 2.373-5.012 2.728-5.012s3.782 6.713 7.616 14.917c3.834 8.205 7.143 14.746 7.352 14.536.21-.21 15.112-31.786 33.115-70.168L182.798.604l5.113-.302 5.114-.301-3.828 8.301c-2.105 4.566-18.093 38.785-35.53 76.042l-31.7 67.74 2.073 4.687c1.174 2.655 2.431 4.286 2.898 3.76.453-.51 17.605-36.815 38.115-80.677l37.29-79.75h9.675l-3.326 7.25c-1.83 3.987-19.818 42.669-39.975 85.958-20.156 43.29-36.648 79.165-36.648 79.723 0 1.46 4.282 10.069 5.008 10.069.336 0 19.797-41.063 43.247-91.25L222.961.604l5.046-.302L233.052 0l-4.319 9.302c-41.761 89.95-91.218 194.802-91.885 194.802-.474 0-2.143-2.813-3.708-6.25zM37.084 78.384C18.204 38.353 2.137 4.358 1.379 2.836L0 .07l25.6.267 25.6.267 22.94 48.629L97.078 97.86l-12.064 25.872c-6.635 14.229-12.41 26.222-12.834 26.65-.423.429-16.217-31.971-35.096-72z" fill="#dbdbdb"/>
</svg>