<svg version="1.2" baseProfile="tiny" xmlns="http://www.w3.org/2000/svg" viewBox="192 381.999 30 30.002"><path fill="#fff" d="M221.227 391.441a2.64 2.64 0 0 0-3.729 0l-2.644 2.647v-6.966c0-.704-.274-1.367-.772-1.865l-2.486-2.486a2.62 2.62 0 0 0-1.865-.772h-15.093a2.64 2.64 0 0 0-2.637 2.637v24.728a2.64 2.64 0 0 0 2.637 2.637h17.579a2.64 2.64 0 0 0 2.637-2.637v-7.815l6.374-6.379a2.636 2.636 0 0 0-.001-3.729zm-8.86 10.109l-.475.475-1.865.621.621-1.865.475-.475 1.244 1.244zm1.243-1.244l-1.243-1.243 4.225-4.229 1.243 1.243-4.225 4.229zm-3.258-16.292l2.486 2.486c.279.279.257.585.257.772h-3.516v-3.516c.166.001.486-.028.773.258zm1.864 26.229h-17.579a.88.88 0 0 1-.879-.879v-24.728a.88.88 0 0 1 .879-.879h13.185v4.395a.88.88 0 0 0 .879.879h4.395v6.816l-2.593 2.595-1.242 1.242a.876.876 0 0 0-.212.344l-1.243 3.729a.881.881 0 0 0 .212.9.876.876 0 0 0 .899.212l3.729-1.243a.89.89 0 0 0 .344-.212l.107-.107v6.057a.883.883 0 0 1-.881.879zm7.768-16.316l-.906.907-1.243-1.243.906-.907a.88.88 0 0 1 1.243 1.243z"/><path fill="#fff" d="M196.395 392.547H208.7a.88.88 0 0 0 0-1.758h-12.306a.88.88 0 0 0 .001 1.758zM196.395 396.062h8.79a.88.88 0 0 0 0-1.758h-8.79a.88.88 0 0 0 0 1.758zM196.395 399.578h8.79a.88.88 0 0 0 0-1.758h-8.79a.88.88 0 0 0 0 1.758zM206.063 402.215a.88.88 0 0 0-.879-.879h-8.79a.88.88 0 0 0 0 1.758h8.79a.878.878 0 0 0 .879-.879zM208.7 406.727h-5.274a.88.88 0 0 0 0 1.758h5.274a.88.88 0 0 0 0-1.758z"/></svg>