<svg xmlns="http://www.w3.org/2000/svg" version="1.2" x="0px" y="0px" viewBox="0 0 30.000452 30" width="30.000452" height="30">
  <path d="M28.842 12.03h-2.556c-.26-.98-.649-1.922-1.162-2.808l1.838-1.837a1.16 1.16 0 0 0 0-1.637l-2.564-2.563a1.186 1.186 0 0 0-1.637 0L20.936 5.01c-.901-.528-1.86-.928-2.863-1.194V1.157C18.073.52 17.554 0 16.916 0H13.29c-.638 0-1.158.52-1.158 1.157v2.66a11.47 11.47 0 0 0-2.902 1.215l-1.92-1.92a1.185 1.185 0 0 0-1.636 0L3.112 5.675a1.16 1.16 0 0 0 0 1.637l1.95 1.95A11.465 11.465 0 0 0 3.92 12.03H1.157C.52 12.03 0 12.549 0 13.188v3.624c0 .639.52 1.158 1.157 1.158H3.92a11.452 11.452 0 0 0 1.194 2.862L3.185 22.76a1.15 1.15 0 0 0-.339.82c0 .309.12.6.339.817l2.564 2.564c.437.438 1.199.438 1.636 0l1.942-1.941a11.43 11.43 0 0 0 2.807 1.162v2.66c0 .639.52 1.158 1.158 1.158h3.625a1.16 1.16 0 0 0 1.157-1.158v-2.66a11.434 11.434 0 0 0 2.769-1.14l1.846 1.846a1.185 1.185 0 0 0 1.637 0l2.562-2.564a1.158 1.158 0 0 0 0-1.636l-1.816-1.817c.539-.91.945-1.884 1.216-2.902h2.555c.639 0 1.157-.52 1.157-1.158v-3.624a1.16 1.16 0 0 0-1.158-1.156zm0 4.782h-3.475l-.1.453a10.312 10.312 0 0 1-1.414 3.378l-.254.393 2.47 2.47-2.563 2.564-2.491-2.492-.392.245a10.297 10.297 0 0 1-3.254 1.34l-.453.1v3.58h-3.625v-3.58l-.453-.1a10.298 10.298 0 0 1-3.291-1.362l-.392-.248-2.589 2.59-2.563-2.564 2.58-2.58-.251-.392a10.335 10.335 0 0 1-1.393-3.342l-.1-.453H1.156v-3.624H4.84l.1-.453a10.315 10.315 0 0 1 1.34-3.256l.246-.39L3.93 6.493 6.494 3.93l2.574 2.575.393-.253a10.319 10.319 0 0 1 3.377-1.415l.453-.1v-3.58h3.625v3.58l.453.1a10.32 10.32 0 0 1 3.34 1.392l.393.252 2.478-2.478 2.563 2.564-2.486 2.485.248.392a10.33 10.33 0 0 1 1.362 3.29l.101.454h3.475v3.624zM15.103 9.043A5.964 5.964 0 0 0 9.146 15a5.963 5.963 0 0 0 5.957 5.957A5.963 5.963 0 0 0 21.06 15a5.964 5.964 0 0 0-5.957-5.957zm0 10.756a4.805 4.805 0 0 1-4.8-4.799c0-2.647 2.154-4.8 4.8-4.8s4.8 2.153 4.8 4.8a4.804 4.804 0 0 1-4.8 4.799zm0 0" fill="#fff"/>
</svg>