<?xml version="1.0" encoding="UTF-8" standalone="no"?>
<!-- Generator: Adobe Illustrator 19.2.1, SVG Export Plug-In . SVG Version: 6.00 Build 0)  -->

<svg
   xmlns:dc="http://purl.org/dc/elements/1.1/"
   xmlns:cc="http://creativecommons.org/ns#"
   xmlns:rdf="http://www.w3.org/1999/02/22-rdf-syntax-ns#"
   xmlns:svg="http://www.w3.org/2000/svg"
   xmlns="http://www.w3.org/2000/svg"
   xmlns:xlink="http://www.w3.org/1999/xlink"
   xmlns:sodipodi="http://sodipodi.sourceforge.net/DTD/sodipodi-0.dtd"
   xmlns:inkscape="http://www.inkscape.org/namespaces/inkscape"
   version="1.1"
   id="Layer_1"
   x="0px"
   y="0px"
   viewBox="0 0 29.999998 30.000001"
   enable-background="new 0 0 265.92 268.8"
   xml:space="preserve"
   inkscape:version="0.91 r13725"
   sodipodi:docname="header-icon-6.svg"
   width="30"
   height="30"><metadata
     id="metadata19"><rdf:RDF><cc:Work
         rdf:about=""><dc:format>image/svg+xml</dc:format><dc:type
           rdf:resource="http://purl.org/dc/dcmitype/StillImage" /><dc:title></dc:title></cc:Work></rdf:RDF></metadata><defs
     id="defs17" /><sodipodi:namedview
     pagecolor="#ffffff"
     bordercolor="#666666"
     borderopacity="1"
     objecttolerance="10"
     gridtolerance="10"
     guidetolerance="10"
     inkscape:pageopacity="0"
     inkscape:pageshadow="2"
     inkscape:window-width="1920"
     inkscape:window-height="1017"
     id="namedview15"
     showgrid="false"
     fit-margin-top="0"
     fit-margin-left="0"
     fit-margin-right="0"
     fit-margin-bottom="0"
     inkscape:zoom="9.9331671"
     inkscape:cx="35.604544"
     inkscape:cy="8.6696024"
     inkscape:window-x="-8"
     inkscape:window-y="-8"
     inkscape:window-maximized="1"
     inkscape:current-layer="Layer_1" /><g
     id="g3"
     transform="scale(0.11200633,0.11200633)"
     style="fill:#ffffff"><g
       id="g5"
       style="fill:#ffffff"><defs
         id="defs7"><rect
           id="SVGID_1_"
           width="265.92001"
           height="268.79999"
           x="0"
           y="0" /></defs><clipPath
         id="SVGID_2_"><use
           xlink:href="#SVGID_1_"
           overflow="visible"
           id="use11"
           style="overflow:visible"
           x="0"
           y="0"
           width="100%"
           height="100%" /></clipPath><path
         clip-path="url(#SVGID_2_)"
         d="m 265.211,124.74 -12.852,0 0,-59.129 c 0,-14.176 -11.531,-25.707 -25.707,-25.707 l -17.41,0 -17.816,-32.031 c -2.715,-4.895 -7.883,-7.934 -13.485,-7.934 -2.613,0 -5.203,0.672 -7.492,1.942 l -68.371,38.023 -76.371,0 C 11.531,39.904 0,51.435 0,65.611 l 0,176.523 c 0,14.172 11.531,25.708 25.707,25.708 l 200.945,0 c 14.176,0 25.707,-11.536 25.707,-25.708 l 0,-51.843 12.852,0 0,-65.551 z M 226.652,50.185 c 7.918,0 14.383,6.016 15.254,13.715 l -19.32,0 -7.621,-13.715 11.687,0 z M 175.453,10.869 c 2.41,-1.352 5.656,-0.406 6.985,1.996 l 28.382,51.027 -130.726,0 95.359,-53.023 z m 66.621,231.265 c 0,8.504 -6.918,15.422 -15.422,15.422 l -200.945,0 c -8.504,0 -15.426,-6.918 -15.426,-15.422 l 0,-176.523 c 0,-8.504 6.922,-15.426 15.426,-15.426 l 57.883,0 -24.66,13.715 -30.008,0 c -2.844,0 -5.145,2.301 -5.145,5.141 0,2.84 2.301,5.14 5.145,5.14 l 213.152,0 0,50.563 -37.597,0 c -17.461,0 -31.672,14.211 -31.672,31.672 l 0,2.211 c 0,17.461 14.211,31.672 31.672,31.672 l 37.597,0 0,51.835 z m 12.856,-62.125 -50.453,0 c -11.797,0 -21.391,-9.593 -21.391,-21.39 l 0,-2.211 c 0,-11.793 9.594,-21.387 21.391,-21.387 l 50.453,0 0,44.988 z m -34.707,-22.074 c 0,6.274 -5.078,11.352 -11.352,11.352 -6.273,0 -11.351,-5.078 -11.351,-11.352 0,-6.269 5.082,-11.351 11.351,-11.351 6.274,0 11.352,5.086 11.352,11.351 l 0,0 z m 0,0"
         id="path13"
         inkscape:connector-curvature="0"
         style="fill:#ffffff" /></g></g></svg>