<svg xmlns="http://www.w3.org/2000/svg" version="1.2"><path fill="#fff" d="M8.835 28.549a2.515 2.515 0 0 0 2.513-2.513 2.516 2.516 0 0 0-2.513-2.514 2.517 2.517 0 0 0-2.514 2.514 2.516 2.516 0 0 0 2.514 2.513zm0 0M24.544 28.549h.185a2.507 2.507 0 0 0 1.719-.869c.444-.499.647-1.146.61-1.83a2.52 2.52 0 0 0-2.68-2.329c-1.386.092-2.421 1.312-2.329 2.68.093 1.313 1.183 2.348 2.495 2.348zm0 0M1.109 3.561h3.179l4.528 16.375c.129.481.573.813 1.072.813h13.917c.444 0 .832-.259 1.017-.665L29.886 8.44a1.122 1.122 0 0 0-.092-1.053 1.103 1.103 0 0 0-.924-.499H13.492c-.61 0-1.109.499-1.109 1.109s.499 1.109 1.109 1.109h13.677l-4.103 9.426H10.72L6.192 2.156a1.11 1.11 0 0 0-1.072-.813H1.109C.499 1.343 0 1.842 0 2.452s.499 1.109 1.109 1.109z"/></svg>