<?xml version="1.0" encoding="UTF-8" standalone="no"?>
<!-- Generator: Adobe Illustrator 19.2.1, SVG Export Plug-In . SVG Version: 6.00 Build 0)  -->

<svg
   xmlns:dc="http://purl.org/dc/elements/1.1/"
   xmlns:cc="http://creativecommons.org/ns#"
   xmlns:rdf="http://www.w3.org/1999/02/22-rdf-syntax-ns#"
   xmlns:svg="http://www.w3.org/2000/svg"
   xmlns="http://www.w3.org/2000/svg"
   xmlns:sodipodi="http://sodipodi.sourceforge.net/DTD/sodipodi-0.dtd"
   xmlns:inkscape="http://www.inkscape.org/namespaces/inkscape"
   version="1.2"
   id="Layer_1"
   x="0px"
   y="0px"
   viewBox="0 0 20.000001 20.000001"
   xml:space="preserve"
   inkscape:version="0.91 r13725"
   sodipodi:docname="header-icon-callto.svg"
   width="20"
   height="20.000002"><metadata
     id="metadata13"><rdf:RDF><cc:Work
         rdf:about=""><dc:format>image/svg+xml</dc:format><dc:type
           rdf:resource="http://purl.org/dc/dcmitype/StillImage" /><dc:title></dc:title></cc:Work></rdf:RDF></metadata><defs
     id="defs11" /><sodipodi:namedview
     pagecolor="#ffffff"
     bordercolor="#666666"
     borderopacity="1"
     objecttolerance="10"
     gridtolerance="10"
     guidetolerance="10"
     inkscape:pageopacity="0"
     inkscape:pageshadow="2"
     inkscape:window-width="1920"
     inkscape:window-height="1017"
     id="namedview9"
     showgrid="false"
     inkscape:zoom="19.376026"
     inkscape:cx="15.438403"
     inkscape:cy="3.5374717"
     inkscape:window-x="-8"
     inkscape:window-y="-8"
     inkscape:window-maximized="1"
     inkscape:current-layer="Layer_1"
     fit-margin-top="0"
     fit-margin-left="0"
     fit-margin-right="0"
     fit-margin-bottom="0" /><g
     id="g3"
     transform="scale(0.05144033,0.0514402)"
     style="fill:#ffffff"><path
       d="m 262.719,223.441 c -1.199,-1.281 -3.117,-2.8 -5.199,-2.8 -2.239,0 -4.239,1.597 -5.598,2.961 l -17.203,17.199 c -2.797,2.879 -6.078,4.32 -9.598,4.32 -2.082,0 -4.16,-0.48 -6.242,-1.519 -0.32,-0.161 -0.641,-0.321 -0.879,-0.481 -1.359,-0.883 -2.961,-1.68 -4.719,-2.562 -2.082,-1.039 -4.242,-2.161 -6.402,-3.52 -16.399,-10.398 -31.199,-23.84 -45.277,-41.199 l -0.082,-0.078 c -7.84,-9.922 -12.961,-18.242 -16.641,-27.121 -0.078,-0.243 -0.16,-0.403 -0.238,-0.641 -0.641,-2.078 -2.719,-8.32 3.281,-14.32 0.156,-0.16 0.238,-0.321 0.398,-0.399 4.321,-3.84 8.239,-7.922 12.481,-12.16 l 4.32,-4.32 c 4.238,-4.242 4.238,-7.36 0,-11.602 l -13.68,-13.679 c -1.601,-1.598 -3.203,-3.282 -4.8,-4.879 -3.039,-3.121 -5.922,-6.082 -8.961,-8.879 l -0.239,-0.242 c -1.203,-1.282 -3.121,-2.719 -5.363,-2.719 -2.238,0 -4.316,1.519 -5.68,2.801 l -17.199,17.117 c -3.758,3.679 -5.679,7.922 -6.16,13.121 -0.641,8.801 1.039,18.082 5.52,30.238 7.519,20.16 18.8,38.961 35.679,59.281 20.481,24.481 45.121,43.762 73.203,57.36 10.161,4.883 23.758,10.562 38.161,11.519 0.718,0.082 1.437,0.082 2.16,0.082 7.117,0 12.238,-2.16 16.797,-7.039 3.203,-3.761 6.562,-7.043 9.761,-10.16 2.16,-2.082 4.16,-4 6,-6 l 0.078,-0.082 c 4.082,-4.238 4.082,-7.84 0.161,-11.758 l -27.84,-27.84 z"
       id="path5"
       inkscape:connector-curvature="0"
       style="fill:#ffffff" /><path
       d="m 194.398,388.801 c 30.161,0 57.68,-5.602 79.524,-16.082 20.719,-10 35.758,-24.321 42.398,-40.239 7.918,-19.121 3.442,-39.039 -12.242,-54.718 l -0.558,-0.563 c 0.242,-0.32 0.558,-0.558 0.8,-0.801 11.2,-11.757 11.2,-27.199 -0.16,-38.558 l -27.68,-27.68 c -5.441,-5.601 -12,-8.64 -18.96,-8.64 -6.961,0 -13.598,2.96 -19.2,8.558 l -14.398,14.402 c -0.723,-0.402 -1.363,-0.718 -2.082,-1.039 -1.762,-0.882 -3.36,-1.679 -4.719,-2.562 -14.641,-9.277 -27.922,-21.438 -40.641,-37.039 -5.601,-7.039 -9.441,-13.039 -12.32,-18.961 3.602,-3.359 6.961,-6.801 10.238,-10.16 1.364,-1.438 2.801,-2.797 4.243,-4.239 11.757,-11.761 11.757,-26.96 0,-38.718 l -13.68,-13.684 c -1.602,-1.598 -3.121,-3.117 -4.641,-4.719 -3.039,-3.121 -6.16,-6.32 -9.519,-9.437 -5.442,-5.363 -11.922,-8.16 -18.801,-8.16 -6.879,0 -13.441,2.797 -19.039,8.16 l -0.16,0.156 -17.199,17.203 c -6.883,6.879 -10.883,15.36 -11.68,25.117 -1.203,15.204 3.199,29.282 6.637,38.481 8.242,22.242 20.562,42.883 38.882,64.961 22.239,26.558 49.039,47.601 79.68,62.398 11.758,5.602 27.52,12.16 45.277,13.364 1.122,0.078 2.243,0.078 3.364,0.078 12.398,0 22.879,-4.481 31.039,-13.36 l 0.32,-0.32 c 0.238,-0.32 0.559,-0.641 0.879,-0.961 l 0.48,0.481 c 10.239,10.242 13.04,21.921 8.079,33.839 -9.2,21.84 -44.957,44.243 -104.161,44.243 -96.636,0 -175.199,-78.563 -175.199,-175.204 0,-96.636 78.563,-175.199 175.199,-175.199 96.641,0 175.204,78.563 175.204,175.199 0,15.922 -2.161,31.602 -6.321,46.723 -1.441,5.117 1.598,10.399 6.719,11.84 5.121,1.437 10.398,-1.602 11.84,-6.723 4.231,-15.317 6.576,-31.171 6.96,-47.193 l 0,-9.841 C 387.426,139.232 367.332,92.453 331.84,56.961 295.121,20.238 246.32,0 194.398,0 142.48,0 93.68,20.238 56.961,56.961 20.238,93.68 0,142.48 0,194.398 0,246.32 20.238,295.121 56.961,331.84 c 36.719,36.719 85.519,56.961 137.437,56.961 z m 96,-125.762 -0.078,0.082 c -1.84,2 -3.84,3.918 -6,6 -3.199,3.117 -6.558,6.399 -9.761,10.16 -4.559,4.879 -9.68,7.039 -16.797,7.039 -0.723,0 -1.442,0 -2.16,-0.082 -14.403,-0.957 -28,-6.636 -38.161,-11.519 -28.082,-13.598 -52.722,-32.879 -73.203,-57.36 -16.879,-20.32 -28.16,-39.121 -35.679,-59.281 -4.481,-12.156 -6.161,-21.437 -5.52,-30.238 0.481,-5.199 2.402,-9.442 6.16,-13.121 l 17.199,-17.117 c 1.364,-1.282 3.442,-2.801 5.68,-2.801 2.242,0 4.16,1.437 5.363,2.719 l 0.239,0.242 c 3.039,2.797 5.922,5.758 8.961,8.879 1.597,1.597 3.199,3.281 4.8,4.879 l 13.68,13.679 c 4.238,4.242 4.238,7.36 0,11.602 l -4.32,4.32 c -4.242,4.238 -8.16,8.32 -12.481,12.16 -0.16,0.078 -0.242,0.239 -0.398,0.399 -6,6 -3.922,12.242 -3.281,14.32 0.078,0.238 0.16,0.398 0.238,0.641 3.68,8.879 8.801,17.199 16.641,27.121 l 0.082,0.078 c 14.078,17.359 28.878,30.801 45.277,41.199 2.16,1.359 4.32,2.481 6.402,3.52 1.758,0.882 3.36,1.679 4.719,2.562 0.238,0.16 0.559,0.32 0.879,0.481 2.082,1.039 4.16,1.519 6.242,1.519 3.52,0 6.801,-1.441 9.598,-4.32 l 17.203,-17.199 c 1.359,-1.364 3.359,-2.961 5.598,-2.961 2.082,0 4,1.519 5.199,2.8 l 27.84,27.84 c 3.921,3.918 3.921,7.52 -0.161,11.758 z"
       id="path7"
       inkscape:connector-curvature="0"
       style="fill:#ffffff" /></g></svg>