<svg version="1.2" baseProfile="tiny" xmlns="http://www.w3.org/2000/svg" viewBox="0 0 30 27.403"><path fill="none" d="M1.856 1.884h26.287v2.968H1.856zM23.88 22.793v-5.295l-1.049-1.741v-.226l-1.236-4.586H8.962l-1.32 4.897-1.228 1.649v5.301h.944v2.727h3.089v-2.727h9.398v2.727h3.089v-2.727h.946zm-2.381-.618h-2.27a1.725 1.725 0 0 1-1.724-1.724v-.02l-.304.03h-4.41a1.726 1.726 0 0 1-1.724 1.689h-2.27a1.727 1.727 0 0 1-1.725-1.725v-1.836c0-.95.773-1.724 1.725-1.724h2.27c.874 0 1.597.652 1.709 1.495h4.744a1.726 1.726 0 0 1 1.709-1.495h2.27c.951 0 1.725.773 1.725 1.724v1.86a1.728 1.728 0 0 1-1.725 1.726z"/><path fill="none" d="M9.071 18.867h1.719v1.284H9.071zM19.504 18.867h1.719v1.308h-1.719z"/><path fill="#fff" d="M24.936 25.718V24.58c.562-.305.944-.902.944-1.589v-5.58a1.768 1.768 0 0 0-.275-.924l-.806-1.34-1.315-4.876a1.792 1.792 0 0 0-1.721-1.326H8.797c-.803 0-1.512.545-1.725 1.327L5.81 14.954l-1.043 1.402a1.824 1.824 0 0 0-.352 1.074v5.561c0 .687.383 1.284.944 1.589v1.138a1.8 1.8 0 0 0 1.174 1.686h4.74a1.798 1.798 0 0 0 1.174-1.686v-.925h5.398v.925a1.8 1.8 0 0 0 1.174 1.686h4.741a1.799 1.799 0 0 0 1.176-1.686zm-5.089-.199v-2.727h-9.398v2.727h-3.09v-2.727h-.944v-5.301l1.228-1.649 1.32-4.897h12.632l1.236 4.586v.226l1.049 1.741v5.295h-.944v2.727h-3.089z"/><path fill="#fff" d="M23.223 18.591c0-.95-.773-1.724-1.725-1.724h-2.27c-.873 0-1.597.652-1.709 1.495h-4.744a1.726 1.726 0 0 0-1.709-1.495h-2.27c-.951 0-1.725.773-1.725 1.724v1.836c0 .951.773 1.725 1.725 1.725h2.27c.939 0 1.706-.755 1.724-1.689h4.41l.304-.03v.02c0 .95.773 1.724 1.724 1.724h2.27c.951 0 1.725-.773 1.725-1.724v-1.862zm-12.432 1.56h-1.72v-1.284h1.719v1.284zm10.432.024h-1.719v-1.308h1.719v1.308z"/><path fill="#fff" d="M30 26.685V1.013A1.874 1.874 0 0 0 28.888 0H1.112A1.873 1.873 0 0 0 0 1.014v25.672h1.857V6.851h26.287v19.834H30zM1.856 4.851V1.884h26.287v2.968H1.856z"/></svg>