<svg xmlns="http://www.w3.org/2000/svg" version="1.2" width="30" height="30"><path d="M28.172 0v30H13.047a.632.632 0 1 1 0-1.266h13.86V1.265H12.995a.632.632 0 1 1 0-1.265h15.177zm-18.17 15.633v4.744c0 .283-.066.524-.196.717a.895.895 0 0 1-.755.407c-.182 0-.463-.054-.776-.315l-6.121-5.127a1.39 1.39 0 0 1-.51-1.06c0-.403.185-.79.51-1.06l6.121-5.125c.31-.26.594-.316.776-.316.458 0 .951.352.951 1.122v4.747h10.712a.631.631 0 1 1 0 1.266H10.002zm-1.265-5.549l-5.77 4.826c-.037.029-.057.062-.057.09 0 .026.02.06.057.09l5.766 4.828.004-9.834zm0 0"/></svg>