<svg xmlns="http://www.w3.org/2000/svg" version="1.2" x="0px" y="0px" viewBox="-49 141 30 30" width="30" height="30">
  <g transform="translate(0 -464.253)" fill="#fff">
    <path d="M-33.616 616.162c-.994 0-1.892-.368-2.464-1.01a2.374 2.374 0 0 1-.599-1.871c.177-1.499 1.77-2.717 3.555-2.717.998 0 1.904.375 2.485 1.028a2.35 2.35 0 0 1 .6 1.855c-.176 1.522-1.747 2.715-3.577 2.715zm.492-4.158c-1.041 0-2.034.674-2.124 1.443-.032.278.05.53.243.748.294.33.814.527 1.389.527 1.073 0 2.056-.66 2.146-1.442a.925.925 0 0 0-.245-.73c-.303-.342-.83-.546-1.41-.546zM-34.39 630.049c-.064 0-1.671.061-2.727-1.221-.656-.797-.87-1.9-.654-3.162l.002-.008c.072-.396.621-3.188.658-3.367.394-1.958-.02-2.252-.198-2.377a1.146 1.146 0 0 1-.38-.393c-.087-.16-.197-.49.034-.896.499-.915 2.129-1.844 3.686-1.72 1.054.084 1.943.54 2.505 1.282.623.823.82 1.922.57 3.178v.008c-.245 1.162-.47 2.205-.59 2.765-.053.245-.088.403-.096.446-.34 1.962.08 2.244.26 2.365.118.079.278.186.39.383.092.158.211.485-.009.896-.456.89-1.953 1.82-3.452 1.82zm-1.962-4.136c-.144.844-.02 1.54.36 2.016.326.408.841.642 1.49.677.445.023.973-.104 1.45-.35.243-.125.439-.263.582-.391-.524-.514-.894-1.434-.528-3.536l.001-.008.104-.488c.12-.558.345-1.596.588-2.752.166-.84.06-1.54-.307-2.025-.315-.417-.824-.664-1.471-.715-.444-.036-.977.078-1.46.311a2.83 2.83 0 0 0-.592.376c.51.528.856 1.457.436 3.548l-.002.007c-.023.11-.573 2.903-.651 3.33z"/>
    <path d="M-21.38 634.198a.72.72 0 0 1-.252-.046l-5.227-1.957A16.13 16.13 0 0 1-34 633.846c-3.994 0-7.752-1.419-10.582-3.996-2.85-2.594-4.418-6.048-4.418-9.726 0-3.678 1.569-7.133 4.418-9.727 2.83-2.577 6.588-3.996 10.582-3.996 3.994 0 7.752 1.42 10.582 3.996 2.849 2.594 4.418 6.048 4.418 9.727 0 3-1.087 5.94-3.07 8.318l1.383 4.838a.72.72 0 0 1-.692.918zM-34 607.841c-7.477 0-13.56 5.51-13.56 12.283 0 6.772 6.083 12.282 13.56 12.282 2.377 0 4.716-.565 6.763-1.635a.72.72 0 0 1 .586-.036l4.187 1.568-1.097-3.838a.72.72 0 0 1 .153-.675c1.942-2.197 2.968-4.848 2.968-7.666 0-6.773-6.083-12.283-13.56-12.283z"/>
  </g>
</svg>