<svg version="1.2" baseProfile="tiny" xmlns="http://www.w3.org/2000/svg" viewBox="-49 141 512 512"><path fill="#FFF" d="M376.63 446.585c-.208-.07-.418-.135-.63-.195l-56.049-15.982-39.785-37.952v-10.202c19.039-19.017 31.034-45.285 31.034-74.256v-62C311.2 188.258 264.436 141 206.4 141c-57.897 0-104.999 47.103-104.999 104.999v62c0 28.971 11.995 55.239 31.034 74.256v10.202l-39.531 37.899-54.997 16.062c-.181.053-.36.109-.538.168-24.143 8.047-38.275 33.594-32.331 58.293l26.518 135.989C32.952 648.03 39.23 653 46.262 653c.417 0 .837-.025 1.258-.061.379.03.757.059 1.143.059h317.62a15 15 0 0 0 14.693-11.98L408.94 504.96c5.997-24.725-8.14-50.318-32.31-58.375zM206.4 460.868l-35.978-54.221c11.228 4.108 23.346 6.351 35.978 6.351s24.75-2.243 35.978-6.351L206.4 460.868zm61.715-38.748l23.853 22.984-42.899 64.35-23.386-23.386 42.432-63.948zM206.4 171c24.494 0 46.28 11.805 59.976 30.021C252.305 219.7 230.062 231 206.4 231h-73.491c6.969-34.192 37.272-60 73.491-60zm-75.2 136.999v-47h75.2c27.739 0 54.083-11.091 73.482-30.047a75.076 75.076 0 0 1 1.518 15.047v62c0 41.355-33.645 75-75 75s-75.2-33.645-75.2-75zm13.485 114.121l42.433 63.948-23.386 23.386-42.899-64.35 23.852-22.984zm-98.058 53.003l48.684-14.218 53.609 80.414c5.24 7.863 16.387 8.988 23.087 2.286l19.394-19.394v98.786H58.636c-.112-.572-24.248-124.413-24.392-124.978-2.408-9.637 3.023-19.645 12.383-22.896zm332.985 23.514l-25.559 124.36H221.199v-98.786l19.594 19.394c6.693 6.696 17.842 5.583 23.087-2.286l53.611-80.417 49.92 14.235c8.197 2.867 14.736 11.288 12.201 23.5z"/><path fill="#FFF" d="M326.399 562.998h-30c-8.284 0-15 6.716-15 15s6.716 15 15 15h30c8.284 0 15-6.716 15-15s-6.715-15-15-15z"/></svg>