<?xml version="1.0" encoding="UTF-8" standalone="no"?>
<!-- Generator: Adobe Illustrator 19.2.1, SVG Export Plug-In . SVG Version: 6.00 Build 0)  -->

<svg
   xmlns:dc="http://purl.org/dc/elements/1.1/"
   xmlns:cc="http://creativecommons.org/ns#"
   xmlns:rdf="http://www.w3.org/1999/02/22-rdf-syntax-ns#"
   xmlns:svg="http://www.w3.org/2000/svg"
   xmlns="http://www.w3.org/2000/svg"
   xmlns:sodipodi="http://sodipodi.sourceforge.net/DTD/sodipodi-0.dtd"
   xmlns:inkscape="http://www.inkscape.org/namespaces/inkscape"
   version="1.2"
   id="Layer_1"
   x="0px"
   y="0px"
   viewBox="0 0 25 26.000001"
   xml:space="preserve"
   inkscape:version="0.91 r13725"
   sodipodi:docname="icon-zoom.svg"
   width="25"
   height="26"><metadata
     id="metadata15"><rdf:RDF><cc:Work
         rdf:about=""><dc:format>image/svg+xml</dc:format><dc:type
           rdf:resource="http://purl.org/dc/dcmitype/StillImage" /><dc:title></dc:title></cc:Work></rdf:RDF></metadata><defs
     id="defs13" /><sodipodi:namedview
     pagecolor="#ffffff"
     bordercolor="#666666"
     borderopacity="1"
     objecttolerance="10"
     gridtolerance="10"
     guidetolerance="10"
     inkscape:pageopacity="0"
     inkscape:pageshadow="2"
     inkscape:window-width="1920"
     inkscape:window-height="1017"
     id="namedview11"
     showgrid="false"
     fit-margin-top="0"
     fit-margin-left="0"
     fit-margin-right="0"
     fit-margin-bottom="0"
     inkscape:zoom="15.198288"
     inkscape:cx="14.080487"
     inkscape:cy="8.9823513"
     inkscape:window-x="-8"
     inkscape:window-y="-8"
     inkscape:window-maximized="1"
     inkscape:current-layer="Layer_1" /><g
     id="g4146"><path
       d="m 10.294841,19.636072 c 5.134247,0 9.313214,-4.184938 9.313214,-9.326521 0,-5.1440368 -4.178967,-9.32652015 -9.313214,-9.32652015 -5.1366971,0 -9.31321276,4.18248335 -9.31321276,9.32652015 0,5.141583 4.17651566,9.326521 9.31321276,9.326521 z m -3.4326346,-9.818036 2.941821,0 0,-2.9460244 c 0,-0.2706096 0.2199776,-0.4909018 0.4908136,-0.4909018 0.270224,0 0.490815,0.2202922 0.490815,0.4909018 l 0,2.9460244 2.938757,0 c 0.270836,0 0.490814,0.220906 0.490814,0.491515 0,0.27061 -0.219978,0.491516 -0.490814,0.491516 l -2.938757,0 0,2.94357 c 0,0.270609 -0.220591,0.490902 -0.490815,0.490902 -0.270836,0 -0.4908136,-0.220293 -0.4908136,-0.490902 l 0,-2.94357 -2.941821,0 c -0.2702235,0 -0.4908141,-0.220906 -0.4908141,-0.491516 0,-0.270609 0.2205906,-0.491515 0.4908141,-0.491515 z"
       id="path5"
       inkscape:connector-curvature="0"
       style="fill:none" /><path
       style="fill:#c2c2c2;fill-opacity:1"
       d="m 6.8622064,10.801067 2.941821,0 0,2.94357 c 0,0.270609 0.2199776,0.490902 0.4908136,0.490902 0.270224,0 0.490815,-0.220293 0.490815,-0.490902 l 0,-2.94357 2.938757,0 c 0.270836,0 0.490814,-0.220906 0.490814,-0.491516 0,-0.270609 -0.219978,-0.491515 -0.490814,-0.491515 l -2.938757,0 0,-2.9460244 c 0,-0.2706096 -0.220591,-0.4909018 -0.490815,-0.4909018 -0.270836,0 -0.4908136,0.2202922 -0.4908136,0.4909018 l 0,2.9460244 -2.941821,0 c -0.2702235,0 -0.4908141,0.220906 -0.4908141,0.491515 0,0.27061 0.2205906,0.491516 0.4908141,0.491516 z"
       id="path7"
       inkscape:connector-curvature="0" /><path
       style="fill:#c2c2c2;fill-opacity:1"
       d="m 10.294841,20.619103 c 2.491449,0 4.777626,-0.894055 6.560733,-2.372897 l 7.300324,7.605296 C 24.251487,25.952137 24.380778,26 24.510068,26 c 0.121938,0 0.243876,-0.04541 0.340078,-0.136225 0.193629,-0.187156 0.200982,-0.498879 0.01409,-0.692785 l -7.28378,-7.586888 c 1.857863,-1.867267 3.009224,-4.438979 3.009224,-7.274551 C 20.589683,4.6236813 15.969535,0 10.294841,0 4.6170841,0 0,4.6236813 0,10.309551 0,15.992967 4.6170841,20.619103 10.294841,20.619103 Z m 0,-19.63607215 c 5.134247,0 9.313214,4.18248335 9.313214,9.32652015 0,5.141583 -4.178967,9.326521 -9.313214,9.326521 -5.1366971,0 -9.31321276,-4.184938 -9.31321276,-9.326521 0,-5.1440368 4.17651566,-9.32652015 9.31321276,-9.32652015 z"
       id="path9"
       inkscape:connector-curvature="0" /></g></svg>