<?xml version="1.0" standalone="no"?>
<!DOCTYPE svg PUBLIC "-//W3C//DTD SVG 20010904//EN"
 "http://www.w3.org/TR/2001/REC-SVG-20010904/DTD/svg10.dtd">
<svg version="1.0" xmlns="http://www.w3.org/2000/svg"
 width="1024.000000pt" height="1024.000000pt" viewBox="0 0 1024.000000 1024.000000"
 preserveAspectRatio="xMidYMid meet">
<metadata>
Created by potrace 1.11, written by Peter Selinger 2001-2013
</metadata>
<g transform="translate(0.000000,1024.000000) scale(0.100000,-0.100000)"
fill="#000000" stroke="none">
<path d="M4909 10236 c-2 -2 -61 -6 -130 -10 -69 -4 -136 -8 -150 -10 -13 -2
-53 -7 -89 -11 -36 -3 -123 -15 -195 -26 -625 -96 -1222 -304 -1766 -616 l-96
-55 43 -90 c24 -49 44 -90 44 -92 0 -2 29 -64 64 -138 35 -73 96 -203 136
-288 40 -85 97 -206 126 -268 30 -62 54 -114 54 -116 0 -2 32 -70 71 -152 102
-215 123 -259 167 -354 67 -144 113 -242 144 -305 l29 -61 -79 -169 c-125
-269 -138 -297 -162 -350 -13 -27 -70 -151 -128 -275 -57 -124 -114 -247 -127
-275 -30 -67 -77 -168 -136 -294 -27 -57 -49 -105 -49 -106 0 -2 -23 -52 -51
-112 -28 -59 -89 -191 -136 -293 -47 -102 -107 -232 -134 -289 -27 -57 -49
-105 -49 -106 0 -2 -23 -52 -51 -112 -57 -120 -81 -172 -133 -286 -19 -42 -37
-77 -40 -77 -3 0 -16 24 -30 53 -13 28 -47 102 -76 162 -29 61 -65 137 -80
170 -15 33 -51 110 -80 170 -29 61 -65 137 -80 170 -15 33 -49 105 -75 160
-26 55 -63 134 -82 175 -19 41 -58 122 -85 180 -28 58 -62 130 -75 160 -14 30
-56 120 -94 198 -38 79 -69 145 -69 147 0 2 -34 74 -75 160 -41 86 -75 158
-75 160 0 1 -30 65 -66 141 -37 77 -86 182 -111 234 -58 125 -142 302 -173
368 l-26 53 -56 -98 c-381 -658 -621 -1458 -666 -2213 -12 -217 -4 -791 12
-819 2 -3 7 -40 10 -81 14 -148 63 -438 107 -618 269 -1123 904 -2115 1814
-2833 540 -426 1158 -738 1825 -919 133 -36 428 -101 525 -114 22 -3 74 -11
115 -16 41 -6 100 -13 130 -16 30 -3 69 -7 85 -9 179 -25 839 -25 970 -1 11 2
52 7 90 11 75 7 104 11 205 26 855 129 1706 499 2385 1036 1023 809 1694 1960
1894 3248 11 72 23 164 27 205 3 41 8 78 10 81 8 14 19 302 19 494 0 258 -16
527 -40 655 -2 14 -7 50 -10 80 -9 75 -48 281 -80 420 -119 517 -320 1013
-601 1480 -243 404 -509 734 -880 1089 l-98 94 -31 -64 c-39 -82 -283 -600
-329 -700 -19 -42 -64 -138 -100 -214 -36 -75 -66 -139 -66 -140 0 -2 -34 -73
-75 -160 -41 -86 -75 -158 -75 -160 0 -2 -34 -74 -75 -160 -41 -86 -75 -158
-75 -160 0 -1 -27 -61 -61 -131 -102 -215 -134 -283 -207 -439 -38 -82 -95
-203 -126 -268 -31 -65 -56 -120 -56 -121 0 -3 -53 -116 -165 -351 -18 -38
-62 -133 -98 -210 -36 -77 -95 -202 -131 -279 -36 -76 -66 -139 -66 -141 0 -1
-29 -63 -64 -136 -35 -74 -77 -163 -94 -199 -16 -36 -82 -177 -147 -315 -64
-137 -133 -284 -152 -325 -19 -41 -55 -118 -80 -170 -63 -132 -410 -873 -441
-940 -13 -30 -52 -111 -85 -180 -32 -69 -72 -154 -87 -190 -15 -36 -70 -153
-122 -260 -52 -107 -105 -219 -118 -247 -13 -29 -27 -53 -32 -53 -13 0 -36 41
-119 221 -45 96 -97 208 -116 249 -19 41 -60 129 -90 194 -30 65 -59 126 -63
135 -5 9 -67 142 -139 296 -71 154 -144 314 -164 355 -144 312 -234 505 -262
565 -18 39 -62 133 -98 210 -35 77 -84 181 -107 230 -23 50 -53 113 -65 140
-12 28 -41 88 -63 135 -22 47 -49 105 -60 130 -11 25 -50 107 -86 184 -36 76
-66 139 -66 141 0 2 -20 46 -120 260 -16 33 -74 159 -130 280 -132 285 -153
329 -211 454 l-49 104 106 231 c128 281 148 320 153 304 2 -7 33 -73 68 -146
34 -74 63 -135 63 -137 0 -1 27 -61 61 -131 34 -71 76 -160 94 -199 18 -38 66
-142 108 -230 77 -165 111 -237 192 -410 77 -162 116 -248 127 -275 9 -23 12
-19 50 60 56 119 173 367 233 495 18 39 54 115 80 170 26 55 60 127 75 160 47
102 148 317 229 489 22 45 91 191 154 326 63 135 134 286 157 335 23 50 57
122 75 160 39 84 96 205 160 340 26 55 60 127 75 160 15 33 48 103 73 155 24
52 129 275 232 495 103 220 208 443 232 495 25 52 58 122 73 155 15 33 48 103
73 155 25 52 61 129 80 170 19 41 49 106 67 143 17 38 30 70 28 72 -10 9 -357
87 -493 110 -92 16 -143 24 -200 30 -27 3 -64 8 -80 10 -17 2 -64 7 -105 10
-41 3 -93 8 -115 11 -47 6 -571 15 -576 10z m-1751 -4383 c61 -131 203 -433
261 -556 28 -60 51 -110 51 -112 0 -1 34 -73 75 -159 41 -86 75 -158 75 -160
0 -2 29 -64 64 -137 35 -74 77 -163 93 -199 28 -60 133 -283 233 -495 23 -49
52 -112 65 -140 12 -27 44 -95 70 -150 133 -279 155 -327 155 -330 0 -1 30
-65 66 -141 37 -77 97 -204 134 -284 37 -80 120 -257 185 -395 64 -137 131
-279 148 -315 16 -36 90 -193 163 -349 l134 -284 -82 -156 c-45 -86 -105 -200
-135 -254 -29 -54 -53 -103 -53 -110 0 -20 -26 25 -67 118 -23 50 -64 138 -92
198 -28 59 -51 109 -51 112 0 2 -24 55 -54 117 -29 62 -66 140 -81 173 -16 33
-64 137 -107 230 -44 94 -115 247 -158 340 -43 94 -95 203 -114 243 -20 40
-36 74 -36 76 0 2 -81 179 -181 393 -99 213 -239 512 -309 663 -70 151 -147
316 -170 365 -23 50 -67 144 -97 210 -31 66 -73 158 -96 205 -22 47 -81 175
-132 285 -139 300 -163 351 -211 454 l-44 93 41 92 c23 50 63 136 88 191 26
55 62 135 81 177 19 43 38 77 41 78 3 0 24 -39 47 -87z m-503 -1075 c26 -57
81 -173 120 -258 40 -85 94 -200 120 -255 26 -55 93 -199 150 -320 56 -121
123 -263 148 -315 43 -90 74 -158 147 -315 18 -38 61 -130 96 -203 35 -74 64
-135 64 -137 0 -2 27 -61 61 -132 34 -70 75 -157 91 -193 34 -75 72 -155 152
-324 31 -65 56 -119 56 -121 0 -1 29 -63 64 -136 35 -74 96 -204 136 -289 40
-85 89 -191 110 -235 21 -44 54 -114 73 -155 45 -98 96 -207 168 -359 33 -67
59 -124 59 -126 0 -1 32 -69 71 -151 39 -82 71 -156 72 -164 0 -9 -48 -108
-108 -221 -59 -112 -120 -225 -133 -252 -14 -26 -28 -47 -31 -47 -3 0 -12 15
-20 32 -14 32 -51 112 -133 288 -22 47 -51 110 -65 140 -14 30 -38 82 -53 115
-16 33 -45 96 -65 140 -21 44 -55 118 -77 165 -22 47 -51 110 -65 140 -14 30
-50 106 -79 169 -30 62 -54 115 -54 117 0 1 -23 51 -51 111 -77 162 -179 381
-286 613 -19 41 -45 98 -58 125 -13 28 -39 84 -58 125 -19 41 -83 179 -142
305 -59 127 -120 257 -135 290 -15 33 -58 125 -95 205 -37 80 -83 179 -102
220 -19 41 -50 107 -68 145 -18 39 -43 93 -55 120 -13 28 -92 198 -176 378
l-153 329 45 101 c25 56 67 147 93 202 26 55 60 130 76 167 17 37 33 68 36 68
3 0 27 -46 54 -102z"/>
<path d="M6900 9858 c-13 -29 -48 -104 -77 -167 -30 -63 -63 -135 -75 -160
-11 -25 -29 -64 -40 -86 -11 -22 -46 -96 -78 -165 -68 -146 -115 -247 -199
-424 -34 -70 -61 -130 -61 -131 0 -1 -31 -69 -70 -149 -38 -81 -70 -149 -70
-150 0 -2 -36 -79 -80 -170 -44 -92 -80 -169 -80 -171 0 -2 -31 -69 -70 -150
-38 -81 -70 -148 -70 -150 0 -2 -29 -63 -64 -136 -35 -74 -75 -159 -89 -189
-13 -30 -45 -98 -70 -150 -24 -52 -77 -165 -117 -250 -40 -85 -89 -191 -110
-235 -21 -44 -86 -183 -145 -310 -59 -126 -113 -241 -121 -255 -7 -14 -41 -86
-75 -160 -34 -74 -84 -182 -111 -240 -28 -58 -76 -161 -108 -230 -32 -69 -79
-170 -105 -225 -26 -55 -60 -127 -75 -160 -15 -33 -51 -109 -80 -170 -29 -60
-53 -117 -52 -125 1 -15 27 -75 124 -280 30 -63 69 -148 88 -187 18 -40 37
-73 40 -73 4 0 21 30 38 67 17 38 56 122 87 188 109 229 133 280 163 345 16
36 52 112 80 170 63 132 112 237 150 320 16 36 53 115 82 175 70 147 135 285
175 370 18 39 52 111 76 160 23 50 43 92 44 95 1 5 22 50 112 240 33 69 71
150 86 180 29 63 79 169 197 420 167 354 234 497 270 575 15 33 53 114 85 180
31 66 69 147 85 180 15 33 48 103 73 155 25 52 61 129 80 170 19 41 57 122 85
180 27 58 64 137 82 175 18 39 53 113 78 165 24 52 77 165 117 250 40 85 91
193 113 240 121 258 141 303 136 311 -6 11 -88 49 -264 123 -179 76 -162 75
-190 14z"/>
<path d="M7740 9448 c-13 -29 -49 -107 -81 -174 -31 -66 -68 -146 -83 -177
-30 -66 -76 -164 -152 -325 -30 -63 -54 -115 -54 -117 0 -2 -27 -61 -61 -132
-61 -128 -98 -206 -159 -338 -46 -99 -73 -158 -290 -620 -106 -225 -200 -428
-210 -450 -10 -22 -43 -94 -75 -160 -31 -66 -84 -178 -117 -250 -33 -71 -77
-166 -98 -210 -21 -44 -102 -217 -180 -385 -79 -168 -161 -343 -183 -390 -21
-47 -56 -121 -77 -165 -20 -44 -117 -251 -215 -460 -98 -209 -198 -423 -222
-475 -25 -52 -56 -120 -70 -150 -14 -30 -52 -111 -84 -179 -33 -68 -59 -125
-59 -126 0 -3 -33 -73 -136 -291 -14 -30 -12 -36 112 -300 69 -148 128 -271
130 -273 2 -2 8 7 13 20 5 13 34 76 64 139 30 63 69 147 87 185 45 98 91 195
140 300 23 50 72 153 107 230 36 77 94 200 129 273 35 74 64 135 64 137 0 1
31 67 69 146 37 79 80 169 94 199 30 66 164 352 218 468 22 45 58 121 80 170
23 48 54 114 69 147 30 66 304 650 394 839 31 65 56 120 56 121 0 1 26 58 59
126 72 153 124 263 166 354 34 73 85 182 156 333 23 48 56 119 74 157 18 39
53 113 77 165 25 52 57 120 70 150 14 30 49 105 78 165 28 61 66 139 82 175
17 36 50 106 73 155 23 50 57 122 75 160 18 39 51 108 72 155 41 86 50 107
157 334 33 71 58 133 56 136 -9 14 -377 260 -389 260 -1 0 -13 -24 -26 -52z"/>
</g>
</svg>
